<svg width="30" height="30" viewBox="0 0 30 30" fill="none" xmlns="http://www.w3.org/2000/svg">
<path d="M0.57806 22.5003C1.84541 22.3456 3.13055 22.5123 4.3979 22.304C5.03449 22.2029 5.61761 21.9887 6.19475 21.7626C4.76682 20.8464 3.48156 19.7992 2.28573 18.5438C1.85735 18.0975 2.1667 17.3478 2.79148 17.3301C3.3032 17.3538 3.80297 17.3123 4.2908 17.211C3.04721 15.6343 2.08336 13.9386 1.33369 12.0346C1.13145 11.5229 1.72637 11.0054 2.20836 11.16C2.48798 11.273 2.77356 11.3504 3.06512 11.4099C2.17864 9.27978 1.99418 7.13192 2.48798 4.77571C2.60105 4.23426 3.31501 4.10341 3.67796 4.46039C6.52201 7.25667 10.1157 8.60139 13.9593 9.24395C13.6201 6.6141 15.4885 3.8177 17.9397 2.90136C19.9746 2.14572 22.7056 2.66341 24.0741 4.37692C24.9904 3.79978 26.2577 3.60935 27.2751 3.43086C27.8106 3.34155 28.3283 3.86521 28.013 4.39471C27.6441 5.01352 27.293 5.67387 26.9063 6.30463C27.6917 6.07252 28.5009 5.92973 29.3101 5.82861C29.8932 5.75124 30.2442 6.64967 29.798 7.00665C28.8519 7.76228 27.9119 8.62501 26.9063 9.31522C26.8766 15.9969 24.925 21.6018 18.9573 25.4037C13.9831 28.5811 4.73697 28.0456 0.411512 23.72H0.405541C0.215107 23.6724 0.113984 23.5296 0.0782854 23.375C-0.088263 23.1251 0.0306445 22.8158 0.250805 22.6967C0.334144 22.5955 0.441239 22.5181 0.57806 22.5003Z" fill="white"/>
</svg>
