<svg width="1440" height="341" viewBox="0 0 1440 341" fill="none" xmlns="http://www.w3.org/2000/svg">
<mask id="mask0_401_154" style="mask-type:alpha" maskUnits="userSpaceOnUse" x="0" y="0" width="1440" height="341">
<rect width="1440" height="341" fill="#D9D9D9"/>
</mask>
<g mask="url(#mask0_401_154)">
<path fill-rule="evenodd" clip-rule="evenodd" d="M0 60.3403L60 49.9935C120 39.6468 240 19.4237 360 12.8394C480 5.7848 600 12.8394 720 22.7158C840 33.0625 960 46.7014 1080 49.9935C1200 53.2857 1320 46.7014 1380 43.4093L1440 39.6468V202.373H1380C1320 202.373 1200 202.373 1080 202.373C960 202.373 840 202.373 720 202.373C600 202.373 480 202.373 360 202.373C240 202.373 120 202.373 60 202.373H0V60.3403Z" fill="#343D68"/>
<path fill-rule="evenodd" clip-rule="evenodd" d="M1440 340.565L1380 350.912C1320 361.258 1200 381.482 1080 388.066C960 395.12 840 388.066 720 378.189C600 367.843 480 354.204 360 350.912C240 347.62 120 354.204 60 357.496L0 361.258V198.533H60C120 198.533 240 198.533 360 198.533C480 198.533 600 198.533 720 198.533C840 198.533 960 198.533 1080 198.533C1200 198.533 1320 198.533 1380 198.533H1440V340.565Z" fill="#343D68"/>
</g>
</svg>
